<?xml version="1.0" standalone="no"?>
<!DOCTYPE svg PUBLIC "-//W3C//DTD SVG 20010904//EN"
 "http://www.w3.org/TR/2001/REC-SVG-20010904/DTD/svg10.dtd">
<svg version="1.0" xmlns="http://www.w3.org/2000/svg"
 width="200.000000pt" height="200.000000pt" viewBox="0 0 200.000000 200.000000"
 preserveAspectRatio="xMidYMid meet">

<g transform="translate(0.000000,200.000000) scale(0.100000,-0.100000)"
fill="#000000" stroke="none">
<path d="M320 958 l0 -178 30 0 c29 0 30 2 30 43 0 39 13 67 31 67 5 0 23 -25
41 -55 29 -49 36 -55 65 -55 31 0 32 1 22 27 -5 15 -26 49 -45 75 -18 26 -34
51 -34 55 0 4 21 29 47 55 l47 48 -41 0 c-36 0 -45 -5 -77 -45 -21 -25 -41
-45 -46 -45 -5 0 -11 41 -12 92 l-3 91 -27 1 -28 2 0 -178z"/>
<path d="M601 1014 c-31 -26 -53 -83 -46 -119 2 -11 4 -24 4 -30 1 -15 43 -60
68 -73 47 -25 153 -3 153 32 0 19 -28 28 -50 16 -29 -16 -75 -12 -93 8 -33 37
-22 42 86 42 l102 0 15 -33 c33 -69 122 -97 188 -57 38 23 39 26 11 40 -15 9
-24 8 -35 -1 -24 -20 -67 -16 -91 9 -13 13 -23 27 -23 33 0 5 40 9 89 9 50 0
92 4 95 8 11 19 -18 94 -46 117 -44 37 -112 35 -155 -4 -18 -16 -35 -41 -39
-55 -9 -37 -28 -32 -44 10 -30 75 -127 100 -189 48z m125 -49 c9 -14 14 -28
11 -31 -3 -4 -31 -7 -61 -8 -61 -1 -71 11 -39 46 24 27 69 23 89 -7z m270 8
c26 -35 17 -43 -46 -43 -45 0 -60 3 -60 14 0 42 80 63 106 29z"/>
<path d="M1110 873 l0 -163 35 0 35 0 0 56 0 55 29 -20 c16 -12 41 -21 56 -21
34 0 67 18 59 32 -4 6 -3 8 3 5 17 -11 44 28 48 69 6 58 -11 110 -44 133 -35
25 -103 28 -121 6 -16 -19 -30 -19 -30 0 0 10 -10 14 -35 13 l-35 -1 0 -164z
m184 95 c17 -23 21 -85 8 -104 -37 -56 -122 -25 -122 45 0 52 23 81 65 81 24
0 39 -7 49 -22z"/>
<path d="M1436 1019 c-19 -15 -26 -30 -26 -53 0 -38 23 -63 71 -77 48 -13 63
-25 56 -43 -7 -19 -58 -22 -88 -5 -21 11 -49 -2 -49 -23 0 -13 65 -38 100 -38
99 0 134 101 50 145 -16 8 -36 15 -44 15 -19 0 -48 29 -41 41 8 12 61 12 84
-1 14 -7 20 -4 29 14 9 20 7 25 -14 35 -40 18 -98 13 -128 -10z"/>
</g>
</svg>
